# xmcd
#
# Track frame offsets:
#	150
#	19447
#	37023
#	51319
#	72174
#	87771
#	105398
#	121836
#	140382
#	155130
#	168567
#	184834
#	202116
#	217714
#
# Disc length: 3133 seconds
#
# Revision: 1
# Processed by: cddbd v1.5.2PL0 Copyright (c) Steve Scherf et al.
# Submitted via: audiograbber 1.83.01
#
DISCID=c70c3b0e
DTITLE=compilation - StarDisc 148
DYEAR=2006
DGENRE=Karaoke
TTITLE0=Keith Urban - Once In A Lifetime
TTITLE1=Rascal Flatts - My Wish
TTITLE2=Toby Keith - Crash Here Tonight
TTITLE3=Sara Evans - You'll Always Be My Baby
TTITLE4=Eric Church - Two Pink Lines
TTITLE5=Rhett Akins - If Heaven Wasn't So Far Away
TTITLE6=Lee Ann Womack - Finding My Way Back Home
TTITLE7=Radney Foster - Half Of My Mistakes
TTITLE8=Jimmy Buffett - Bama Breeze
TTITLE9=Ray Scott - I Didn't Come Here To Talk
TTITLE10=Randy Rogers Band - Kiss Me In The Dark
TTITLE11=Tracy Lawrence - You Find Out Who Your Friends Are
TTITLE12=Trent Willmon - So Am I
TTITLE13=Lindsey Haun - Broken
EXTD=
EXTT0=
EXTT1=
EXTT2=
EXTT3=
EXTT4=
EXTT5=
EXTT6=
EXTT7=
EXTT8=
EXTT9=
EXTT10=
EXTT11=
EXTT12=
EXTT13=
PLAYORDER=
